<svg xmlns="http://www.w3.org/2000/svg" viewBox="0 0 191.004 121.007"><defs><style>.cls-1{fill:#040000;}</style></defs><title>logo_pc</title><g id="レイヤー_2" data-name="レイヤー 2"><g id="レイヤー_1-2" data-name="レイヤー 1"><path class="cls-1" d="M191,42.738h-9.356V23.328l-41.806,19.41H99.334L9.358,0,9.271,42.738H0V43.8H99.09l20.035,9.516.227.107L140.08,43.8H191Zm-180.664,0,.084-41.051L96.849,42.738Zm109.017,9.511L101.576,43.8h35.973ZM180.579,25V42.738H142.373Z"/><path class="cls-1" d="M12.324,98.393l-1,1.111v1.8h-.874V95.017h.874v1.207c0,.711-.009,1.422-.009,2.143h.009c.454-.525.882-1.023,1.347-1.547l1.543-1.8h1.062L12.9,97.736l2.5,3.572H14.34Z"/><path class="cls-1" d="M22.309,95.017l.089.78H19.5v1.9h2.676v.774H19.5v2.053h2.9l-.089.782H18.625V95.017Z"/><path class="cls-1" d="M26.131,95.017h.651L29.466,98.1c.4.461.794.924,1.2,1.422H30.7c-.01-.5-.019-.961-.019-1.6v-2.9h.865v6.407h-.337l-2.981-3.4c-.4-.454-.8-.924-1.222-1.413h-.028C27,97.1,27,97.566,27,98.2v3.111h-.865Z"/><path class="cls-1" d="M35.3,100.161l.623-.426.153.035a1.516,1.516,0,0,0,1.428.943,1.062,1.062,0,0,0,1.15-1c0-.534-.268-.889-1.4-1.352-1.294-.542-1.739-1.093-1.739-1.918,0-.89.731-1.592,1.936-1.592a2.049,2.049,0,0,1,1.882,1l-.606.427-.153-.035a1.259,1.259,0,0,0-1.142-.649c-.641,0-1.008.356-1.008.834,0,.446.233.694,1.347,1.2,1.428.639,1.793,1.182,1.793,2.044a1.9,1.9,0,0,1-2.051,1.8A2.3,2.3,0,0,1,35.3,100.161Z"/><path class="cls-1" d="M43.165,95.017h.874v2.71h3.31v-2.71h.876v6.291h-.876v-2.79h-3.31v2.79h-.874Z"/><path class="cls-1" d="M53.2,95.017v6.291H52.33V95.017Z"/><path class="cls-1" d="M65.82,99.149l2.068-4.132h1.161v6.291h-.856V96.144h-.019l-2.293,4.479H65.72l-2.3-4.479H63.4l.009,5.164h-.865V95.017h1.168L65.8,99.149Z"/><path class="cls-1" d="M76.712,99.735H73.759l-.625,1.573h-.965l2.687-6.291h.785l2.667,6.291h-.962Zm-.294-.72-.76-1.865c-.16-.409-.3-.774-.419-1.129h-.018c-.125.355-.257.72-.428,1.129l-.74,1.865Z"/><path class="cls-1" d="M80.586,95.807v-.79h5.158v.79H83.6v5.5h-.876v-5.5Z"/><path class="cls-1" d="M88.824,100.161l.624-.426.151.035a1.518,1.518,0,0,0,1.428.943,1.062,1.062,0,0,0,1.152-1c0-.534-.268-.889-1.4-1.352-1.294-.542-1.74-1.093-1.74-1.918,0-.89.732-1.592,1.936-1.592a2.05,2.05,0,0,1,1.883,1l-.606.427-.152-.035a1.262,1.262,0,0,0-1.142-.649c-.644,0-1.01.356-1.01.834,0,.446.234.694,1.348,1.2,1.428.639,1.793,1.182,1.793,2.044a1.9,1.9,0,0,1-2.051,1.8A2.3,2.3,0,0,1,88.824,100.161Z"/><path class="cls-1" d="M96.642,98.837v-3.82h.874v3.749c0,1.316.517,1.893,1.669,1.893s1.66-.577,1.66-1.9v-3.74h.874v3.811a2.335,2.335,0,0,1-2.534,2.648C97.462,101.476,96.642,100.571,96.642,98.837Z"/><path class="cls-1" d="M108.7,99.149l2.072-4.132h1.159v6.291h-.856V96.144h-.018l-2.294,4.479H108.6l-2.3-4.479h-.018l.009,5.164h-.865V95.017h1.168l2.087,4.132Z"/><path class="cls-1" d="M115.377,98.162a3.378,3.378,0,1,1,3.383,3.314A3.26,3.26,0,0,1,115.377,98.162Zm5.836,0a2.459,2.459,0,1,0-2.453,2.5A2.4,2.4,0,0,0,121.213,98.162Z"/><path class="cls-1" d="M124.746,95.807v-.79h5.159v.79h-2.142v5.5h-.876v-5.5Z"/><path class="cls-1" d="M132.69,98.162a3.378,3.378,0,1,1,3.381,3.314A3.258,3.258,0,0,1,132.69,98.162Zm5.834,0a2.458,2.458,0,1,0-2.453,2.5A2.4,2.4,0,0,0,138.524,98.162Z"/><path class="cls-1" d="M14.011,119.266H11.058l-.625,1.573H9.469l2.686-6.29h.785l2.668,6.29h-.963Zm-.294-.719-.759-1.866c-.16-.409-.3-.773-.42-1.129h-.017c-.126.356-.26.72-.429,1.129l-.739,1.866Z"/><path class="cls-1" d="M23.246,120.7l-.061.142h-.893l-1.893-2.7h-.963v2.7h-.883v-6.282h1.9c1.365,0,2.124.595,2.124,1.821a1.614,1.614,0,0,1-1.276,1.635Zm-3.81-3.3h.84c.99,0,1.427-.285,1.427-1.023,0-.782-.447-1.067-1.427-1.067h-.84Z"/><path class="cls-1" d="M25.936,117.694a3.215,3.215,0,0,1,3.292-3.316,3.064,3.064,0,0,1,2.881,1.681l-.625.417-.151-.036a2.223,2.223,0,0,0-2.088-1.243,2.5,2.5,0,0,0,.009,4.994,2.181,2.181,0,0,0,2.124-1.226l.16-.037.6.419a3.114,3.114,0,0,1-2.908,1.66A3.2,3.2,0,0,1,25.936,117.694Z"/><path class="cls-1" d="M35.5,114.549h.874v2.71h3.31v-2.71h.874v6.29h-.874v-2.79h-3.31v2.79H35.5Z"/><path class="cls-1" d="M45.181,114.549v6.29h-.874v-6.29Z"/><path class="cls-1" d="M48.62,115.339v-.79h5.159v.79H51.637v5.5h-.876v-5.5Z"/><path class="cls-1" d="M60.72,114.549l.089.78h-2.9v1.9h2.676V118H57.91v2.053h2.9l-.089.782H57.036v-6.29Z"/><path class="cls-1" d="M63.891,117.694a3.215,3.215,0,0,1,3.292-3.316,3.063,3.063,0,0,1,2.881,1.681l-.625.417-.151-.036A2.223,2.223,0,0,0,67.2,115.2a2.5,2.5,0,0,0,.009,4.994,2.181,2.181,0,0,0,2.124-1.226l.16-.037.6.419a3.114,3.114,0,0,1-2.908,1.66A3.2,3.2,0,0,1,63.891,117.694Z"/><path class="cls-1" d="M72.965,115.339v-.79h5.157v.79H75.981v5.5h-.875v-5.5Z"/><path class="cls-1" d="M81.2,119.693l.623-.427.152.035a1.518,1.518,0,0,0,1.427.943,1.063,1.063,0,0,0,1.153-1c0-.534-.268-.89-1.4-1.353-1.293-.541-1.739-1.092-1.739-1.918,0-.889.731-1.592,1.936-1.592a2.046,2.046,0,0,1,1.882,1l-.606.426-.151-.034a1.26,1.26,0,0,0-1.142-.649c-.644,0-1.01.355-1.01.834,0,.445.233.693,1.347,1.2,1.428.64,1.794,1.182,1.794,2.044a1.894,1.894,0,0,1-2.051,1.8A2.3,2.3,0,0,1,81.2,119.693Z"/></g></g></svg>