<?xml version="1.0" encoding="UTF-8" standalone="no"?>
<!-- Created with Inkscape (http://www.inkscape.org/) -->

<svg
   xmlns:dc="http://purl.org/dc/elements/1.1/"
   xmlns:cc="http://creativecommons.org/ns#"
   xmlns:rdf="http://www.w3.org/1999/02/22-rdf-syntax-ns#"
   xmlns:svg="http://www.w3.org/2000/svg"
   xmlns="http://www.w3.org/2000/svg"
   version="1.1"
   width="199.99998"
   height="100.19624"
   id="svg3264">
  <defs
     id="defs3266" />
  <metadata
     id="metadata3269">
    <rdf:RDF>
      <cc:Work
         rdf:about="">
        <dc:format>image/svg+xml</dc:format>
        <dc:type
           rdf:resource="http://purl.org/dc/dcmitype/StillImage" />
        <dc:title></dc:title>
      </cc:Work>
    </rdf:RDF>
  </metadata>
  <g
     transform="translate(775.95487,-737.98607)"
     id="layer1">
    <g
       transform="matrix(0.09312473,0,0,0.17265182,-785.43763,728.45732)"
       id="g3311">
      <path
         d="m 2038.1143,55.190553 -1724.9143,0 c -115.71429,0 -211.37143,51.845667 -211.37143,114.562207 l 0,351.21261 c 0,62.71654 95.65714,114.56221 211.37143,114.56221 l 1724.9143,0 c 115.7143,0 211.3714,-51.84567 211.3714,-114.56221 l 0,-351.21261 c 0,-62.71654 -95.6571,-114.562207 -211.3714,-114.562207 z"
         id="path3315"
         style="fill:#009944;fill-opacity:1;fill-rule:nonzero;stroke:none" />
      <path
         d="m 2038.1143,79.440947 -1724.9143,0 c -91.02857,0 -166.62857,40.974803 -166.62857,90.311813 l 0,351.21261 c 0,50.17323 75.6,90.31181 166.62857,90.31181 l 1724.9143,0 c 92.5714,0 166.6286,-40.13858 166.6286,-90.31181 l 0,-351.21261 c 0,-49.33701 -74.0572,-90.311813 -166.6286,-90.311813 z"
         id="path3317"
         style="fill:#ffffff;fill-opacity:1;fill-rule:nonzero;stroke:none" />
      <path
         d="m 2082.8571,105.36378 -907.2,239.99528 988.9715,0 0,-175.6063 c 0,-29.26772 -33.9429,-54.35433 -81.7715,-64.38898 m 0,0 0,0 z"
         id="path3319"
         style="fill:#009944;fill-opacity:1;fill-rule:nonzero;stroke:none" />
      <path
         d="m 1175.6571,345.35906 -163.5428,244.17639 327.0857,0 z"
         id="path3321"
         style="fill:#009944;fill-opacity:1;fill-rule:nonzero;stroke:none" />
      <path
         d="m 1175.6571,345.35906 907.2,239.99529 c 47.8286,-10.03465 81.7715,-35.12126 81.7715,-64.38898 l 0,-175.60631 -988.9715,0 z"
         id="path3323"
         style="fill:#8ec31f;fill-opacity:1;fill-rule:nonzero;stroke:none" />
      <path
         d="m 268.45714,105.36378 c -47.82857,10.03465 -81.77143,35.12126 -81.77143,64.38898 l 0,175.6063 988.97139,0 z"
         id="path3325"
         style="fill:#009944;fill-opacity:1;fill-rule:nonzero;stroke:none" />
      <path
         d="m 186.68571,345.35906 0,175.60631 c 0,29.26772 33.94286,54.35433 81.77143,64.38898 L 1175.6571,345.35906 z"
         id="path3327"
         style="fill:#8ec31f;fill-opacity:1;fill-rule:nonzero;stroke:none" />
    </g>
  </g>
</svg>
